PathFileType	4	(X/Y/Z)	C:\Users\Basilio\Documents\Thesis Gigler\squatting_fais\c3dfiles\041\SLS_pre_front1\markers_experimental.trc
DataRate	CameraRate	NumFrames	NumMarkers	Units	OrigDataRate	OrigDataStartFrame	OrigNumFrames
200.000000	200.000000	4	62	mm	200.000000	568	1517
Frame#	Time	FHD			LBHD			RBHD			C7			T10			CLAV			LSHO			LUUPA			LMUPA			LDUPA			LLEP			LMEP			LRAD			LUL			LRFIN			RSHO			RUPA1			RMUPA			RDUPA			RLEP			RMEP			RRAD			RUL			RUFIN			LASI			RASI			USACR			LSACR			RSACR			LTHI1			LTHI2			LTHI3			LTHI4			LLFC			LMFC			LTIB1			LTIB2			LTIB3			LTIB4			LLMAL			LMMAL			LHEE			LMT1			LMT2			LMT5			RTHI			RTHI2			RTHI3			RTHI4			RLFC			RMFC			RTIB1			RTIB2			RTIB3			RTIB4			RLMAL			RMMAL			RHEE			RMT1			RMT2			RMT5			*61			
		X1	Y1	Z1	X2	Y2	Z2	X3	Y3	Z3	X4	Y4	Z4	X5	Y5	Z5	X6	Y6	Z6	X7	Y7	Z7	X8	Y8	Z8	X9	Y9	Z9	X10	Y10	Z10	X11	Y11	Z11	X12	Y12	Z12	X13	Y13	Z13	X14	Y14	Z14	X15	Y15	Z15	X16	Y16	Z16	X17	Y17	Z17	X18	Y18	Z18	X19	Y19	Z19	X20	Y20	Z20	X21	Y21	Z21	X22	Y22	Z22	X23	Y23	Z23	X24	Y24	Z24	X25	Y25	Z25	X26	Y26	Z26	X27	Y27	Z27	X28	Y28	Z28	X29	Y29	Z29	X30	Y30	Z30	X31	Y31	Z31	X32	Y32	Z32	X33	Y33	Z33	X34	Y34	Z34	X35	Y35	Z35	X36	Y36	Z36	X37	Y37	Z37	X38	Y38	Z38	X39	Y39	Z39	X40	Y40	Z40	X41	Y41	Z41	X42	Y42	Z42	X43	Y43	Z43	X44	Y44	Z44	X45	Y45	Z45	X46	Y46	Z46	X47	Y47	Z47	X48	Y48	Z48	X49	Y49	Z49	X50	Y50	Z50	X51	Y51	Z51	X52	Y52	Z52	X53	Y53	Z53	X54	Y54	Z54	X55	Y55	Z55	X56	Y56	Z56	X57	Y57	Z57	X58	Y58	Z58	X59	Y59	Z59	X60	Y60	Z60	X61	Y61	Z61	X62	Y62	Z62	

569	2.84	-229.2716827392579	1688.149047851563	-1087.091064453125	-402.3714294433595	1614.22900390625	-1163.984497070313	-384.6350402832032	1620.218017578125	-1012.195373535156	-446.5031127929689	1479.603271484375	-1094.1630859375	-531.1254272460939	1183.31982421875	-1074.912719726563	-293.3104248046876	1411.045776367188	-1095.519775390625	-365.8389282226563	1484.161376953125	-1232.836181640625	-265.2875366210938	1490.638671875	-1364.12353515625	-222.4713745117188	1505.131958007813	-1347.598876953125	-210.7289428710938	1494.301025390625	-1407.094482421875	-167.3874206542969	1492.446899414063	-1425.7607421875	-118.8303527832032	1429.256958007813	-1392.736206054688	97.61429595947268	1545.659545898438	-1494.50048828125	59.37767028808595	1542.2685546875	-1556.952758789063	154.4900360107422	1589.284790039063	-1529.643310546875	-363.1471862792969	1499.828979492188	-972.099548339844	-214.4346618652344	1501.658203125	-863.613952636719	-198.6004638671876	1527.767333984375	-904.5747680664065	-148.5092163085938	1526.267211914063	-872.1885986328127	-104.373764038086	1531.7001953125	-875.3797607421877	-80.89122009277345	1452.976440429688	-901.0656738281252	160.85107421875	1551.158203125	-924.3651123046877	151.2370758056641	1568.688598632813	-852.8485107421877	242.2134552001954	1574.920166015625	-921.6579589843752	-378.0035705566407	978.7996826171877	-1163.631469726563	-386.8917846679689	996.6660156250002	-940.711853027344	-560.4089355468751	1055.090087890625	-1062.114135742188	-573.9850463867189	1026.234130859375	-1088.177734375	-578.3051147460939	1029.774047851563	-1033.251220703125	-410.4921264648439	761.7420654296876	-1216.282592773438	-342.4571228027344	711.9281005859376	-1207.967895507813	-303.3401794433594	736.5672607421876	-1198.789306640625	-341.4820251464844	651.5056152343751	-1190.303466796875	-250.727523803711	510.2836303710939	-1158.173095703125	-246.5951690673829	506.9903869628907	-1041.886840820313	-256.5204772949219	326.9409484863282	-1081.624633789063	-312.6445617675782	290.3664550781251	-1140.807861328125	-277.0773925781251	279.9809570312501	-1114.2939453125	-298.6312255859376	210.4616088867188	-1073.0146484375	-379.5950622558594	130.3474884033203	-1107.523681640625	-342.3310546875001	138.4380035400391	-1024.635986328125	-449.091033935547	116.3358764648438	-1063.492065429688	-243.3068237304688	62.60208129882814	-1038.71484375	-236.6364288330079	59.2782325744629	-1083.972045898438	-285.7878417968751	45.96257781982423	-1136.448974609375	-340.0033264160157	770.2348632812502	-856.423278808594	-273.9736938476563	768.0623779296877	-855.657653808594	-254.8037872314454	794.4660644531252	-863.574401855469	-228.6713104248047	696.5349121093751	-868.979187011719	-129.6811828613282	619.0469360351564	-870.688659667969	-100.6767730712891	621.9530639648439	-987.112487792969	16.26780509948731	529.9242553710939	-873.0244140625002	14.64194011688233	416.8294677734376	-858.8623657226565	48.44297027587892	448.9086303710939	-858.818786621094	99.73828125000003	432.8415527343751	-883.9514770507815	152.876953125	309.5072326660157	-868.425964355469	157.2057647705078	347.2732849121094	-947.7851562500002	149.1011047363282	239.4003601074219	-920.0024414062502	283.9308166503907	409.2109680175782	-927.648864746094	283.0463256835938	413.7974548339845	-874.8248291015627	274.9401550292969	364.1528625488282	-829.9771118164065	-4217.270019531251	853.2358398437502	-3944.755371093751	
570	2.845	-229.1072082519532	1687.351684570313	-1087.356201171875	-402.3305969238282	1613.3515625	-1164.138916015625	-384.7486572265626	1619.225219726563	-1012.166564941406	-446.3862609863282	1478.776000976563	-1094.218505859375	-531.4183959960939	1182.64697265625	-1074.856323242188	-292.7361450195313	1410.144653320313	-1095.637329101563	-365.2499389648438	1483.322875976563	-1232.784301757813	-265.3296813964844	1489.695556640625	-1364.27587890625	-222.5180206298829	1504.397094726563	-1347.791015625	-210.2913818359376	1493.317016601563	-1406.949462890625	-167.426986694336	1491.681274414063	-1425.91357421875	-118.7316665649414	1428.674682617188	-1392.912841796875	97.517448425293	1545.2861328125	-1494.682373046875	59.10134506225587	1541.813720703125	-1557.319580078125	154.1373596191407	1589.009521484375	-1530.027954101563	-363.1238403320313	1499.095092773438	-972.2092895507815	-214.2708740234376	1500.909545898438	-863.7349853515627	-198.5209655761719	1526.896850585938	-904.7280273437502	-148.265853881836	1525.62548828125	-872.4146728515627	-104.4425048828125	1531.0791015625	-875.5681152343752	-80.91281127929689	1452.036254882813	-901.1768798828127	160.9980010986328	1550.494750976563	-924.5238037109377	151.3116455078125	1568.12353515625	-853.044616699219	242.1292877197266	1574.173828125	-921.768493652344	-378.4331970214844	978.1245117187502	-1163.624877929688	-387.2701110839845	995.8540039062502	-940.7596435546877	-560.8632202148439	1054.413208007813	-1062.028198242188	-574.3684082031251	1025.59228515625	-1088.050048828125	-578.8501586914064	1029.053344726563	-1033.29638671875	-410.5371704101564	761.1434326171876	-1216.30859375	-342.4528503417969	711.5339965820314	-1207.99462890625	-303.0127868652344	735.9868164062501	-1198.66259765625	-341.1613159179688	651.0512695312501	-1190.381225585938	-250.7307586669922	510.1486816406251	-1158.410034179688	-245.9639282226563	506.6121520996095	-1041.97998046875	-255.9875488281251	326.8071289062501	-1081.72900390625	-312.6813659667969	290.1942443847657	-1140.856567382813	-276.8724060058594	279.8198852539063	-1114.268920898438	-298.5799865722657	210.3416442871094	-1073.0859375	-379.5036621093751	130.3244934082032	-1107.559326171875	-342.2806091308594	138.4379272460938	-1024.649536132813	-449.1192016601564	116.3348999023438	-1063.444213867188	-243.6086578369141	62.85338973999025	-1038.712280273438	-236.6064605712891	59.3817825317383	-1083.965576171875	-285.8101806640626	45.9588851928711	-1136.466430664063	-340.1501464843751	769.5872802734377	-856.2719726562502	-274.1901855468751	767.6613769531251	-855.5861816406252	-254.9884948730469	794.0163574218752	-863.4595947265627	-228.6600952148438	696.1085815429689	-868.9232177734377	-129.5263366699219	618.7567138671876	-870.663513183594	-100.5302352905274	621.7791748046876	-987.0325927734377	16.45710945129395	529.8109741210939	-872.9576416015627	15.00128364562989	416.6124572753907	-858.9359130859377	48.74329376220705	448.8736267089845	-858.903259277344	100.001708984375	432.8556518554689	-883.9978027343752	153.3396606445313	309.6102600097657	-868.4146118164065	157.6253662109375	347.3686828613282	-947.8723754882815	149.4536437988282	239.6278228759766	-919.9756469726565	284.3439331054688	409.4917297363282	-927.6716308593752	283.2884216308594	414.049774169922	-874.875915527344	275.3881225585938	364.3938293457032	-829.9471435546877	-4216.784667968751	853.1025390625002	-3944.800292968751	
571	2.85	-228.7112426757813	1686.132690429688	-1087.438110351563	-402.1749267578126	1612.378295898438	-1164.2529296875	-384.6482238769532	1618.360595703125	-1012.175659179688	-446.3313598632814	1477.944946289063	-1094.207885742188	-531.6965942382814	1181.9462890625	-1074.8369140625	-293.3183288574219	1409.313110351563	-1095.5732421875	-365.6393737792969	1482.484619140625	-1232.834228515625	-265.4251098632813	1488.8720703125	-1364.370483398438	-222.4210968017579	1503.518676757813	-1347.93017578125	-209.9263000488282	1492.309814453125	-1406.9443359375	-167.5409393310547	1490.981689453125	-1426.033935546875	-118.7652816772461	1428.175170898438	-1392.971923828125	97.02848052978518	1544.740356445313	-1494.98876953125	58.94099426269533	1541.32861328125	-1557.627319335938	153.8251953125	1588.61669921875	-1530.499877929688	-362.9140014648438	1498.26318359375	-972.3215942382815	-214.2809143066407	1500.186401367188	-863.8931884765627	-198.4732208251954	1526.201049804688	-904.9439697265627	-148.2550964355469	1524.98779296875	-872.6036376953127	-104.1733093261719	1530.386352539063	-875.8023681640627	-80.62866210937501	1451.537841796875	-901.4048461914065	161.0244598388672	1549.857055664063	-924.6233520507815	151.4097137451172	1567.33447265625	-853.3001098632815	242.2652587890626	1573.546997070313	-922.0067138671877	-378.9054565429688	977.5049438476565	-1163.568481445313	-387.516326904297	995.0667114257815	-940.798522949219	-561.0261230468751	1053.362426757813	-1061.748291015625	-574.9298095703126	1024.71337890625	-1088.039794921875	-579.2974243164064	1028.285766601563	-1033.191040039063	-410.5838928222657	760.5152587890626	-1216.311889648438	-342.3589477539063	711.0891723632814	-1208.028564453125	-302.9339294433594	735.7156372070314	-1198.736328125	-340.9328308105469	650.6596069335939	-1190.320190429688	-250.2251586914063	509.9326171875001	-1158.47900390625	-245.3108215332032	506.4332580566407	-1042.049560546875	-255.6781158447266	326.6577453613282	-1081.70654296875	-312.2408752441407	290.0476684570313	-1140.745239257813	-276.6278991699219	279.5426025390626	-1114.240234375	-298.4302368164063	210.2703094482422	-1073.011962890625	-379.5117797851563	130.3189849853516	-1107.565673828125	-342.2369689941407	138.4162750244141	-1024.64013671875	-449.1858215332032	116.5037307739258	-1063.390014648438	-243.2841339111329	62.56760787963869	-1038.729370117188	-236.6674804687501	59.33806228637697	-1083.973388671875	-285.7530822753907	45.99172973632813	-1136.4755859375	-340.3122863769532	768.7999267578127	-856.2078857421877	-274.2756042480469	766.9257202148439	-855.5351562500002	-255.4102630615235	793.5181884765627	-863.2568359375002	-228.7122955322266	695.7802124023439	-868.9249267578127	-129.4409790039063	618.5678710937501	-870.6326904296877	-100.3710174560547	621.6097412109376	-987.0343017578127	16.87915802001953	529.4975585937501	-872.999450683594	15.31224346160889	416.5156860351564	-858.960144042969	49.02775192260744	448.8246154785157	-858.9171142578127	100.1896514892578	432.8401794433595	-883.946228027344	153.6296997070313	309.7027282714844	-868.331481933594	158.0042419433594	347.4214172363282	-947.963562011719	150.5541534423828	238.6422729492188	-920.282653808594	285.3630371093751	409.724334716797	-927.5552978515627	283.6658935546876	414.312469482422	-874.8597412109377	275.6970214843751	364.5826721191407	-829.997741699219	-4216.736328125001	853.0728149414065	-3944.764404296876	
572	2.855	-228.7953643798829	1685.135009765625	-1087.394287109375	-401.9942321777345	1611.345458984375	-1164.27392578125	-384.5090332031251	1617.568115234375	-1012.254211425781	-446.2738647460939	1477.187744140625	-1094.29736328125	-532.0482788085939	1181.200317382813	-1074.740844726563	-293.1720275878907	1408.410034179688	-1095.668701171875	-365.5825805664063	1481.564697265625	-1232.920166015625	-265.7929382324219	1487.949829101563	-1364.302368164063	-222.6992950439454	1502.872924804688	-1348.1435546875	-210.1465454101563	1491.506591796875	-1407.255859375	-167.5575103759766	1490.243774414063	-1426.297607421875	-119.0828552246094	1427.708129882813	-1393.226806640625	96.80102539062503	1544.343994140625	-1495.520141601563	58.75255203247072	1540.782592773438	-1557.99462890625	153.4827728271485	1588.171142578125	-1531.013427734375	-362.8542480468751	1497.456176757813	-972.4451904296877	-214.3284149169922	1499.611572265625	-863.983093261719	-198.3222351074219	1525.505981445313	-905.1221923828127	-148.2169647216797	1524.146850585938	-872.7381591796877	-104.0486297607422	1529.53271484375	-876.0745849609377	-80.5345916748047	1450.864013671875	-901.5240478515627	161.270004272461	1548.97021484375	-924.951599121094	151.3492126464844	1566.798217773438	-853.4715576171877	242.3952636718751	1572.930053710938	-922.187927246094	-379.3223571777344	976.8052368164065	-1163.578125	-388.0768127441407	994.3672485351565	-940.6458740234377	-561.3782348632814	1052.808715820313	-1061.832275390625	-575.2301635742189	1023.963195800781	-1087.995483398438	-579.6097412109376	1027.425903320313	-1033.099731445313	-410.6676635742189	759.8355102539064	-1216.314086914063	-342.1769714355469	710.5583496093751	-1208.1005859375	-302.9035949707032	735.3182373046876	-1198.728759765625	-340.7366943359376	650.3170166015626	-1190.310913085938	-249.6794738769532	509.690887451172	-1158.500610351563	-244.8488769531251	506.1665954589845	-1042.074462890625	-255.2730255126954	326.4615783691407	-1081.631591796875	-311.8536987304688	289.9064331054688	-1140.603271484375	-276.1130676269532	279.3226318359376	-1114.218627929688	-298.2439575195313	210.0012359619141	-1072.9716796875	-379.5236816406251	130.2312316894532	-1107.5615234375	-342.2770690917969	138.4472808837891	-1024.631469726563	-449.2244873046876	116.4644622802735	-1063.366577148438	-243.3403320312501	62.57530212402345	-1038.73291015625	-236.4465026855469	59.38237762451173	-1083.984375	-285.8157043457032	45.9981918334961	-1136.470336914063	-340.1879272460938	768.0605468750002	-856.3530273437502	-274.3351440429688	766.3702392578126	-855.4603271484377	-255.5568389892579	792.9146728515627	-863.2197265625002	-228.9370269775391	695.3569946289064	-868.8474731445315	-129.3493347167969	618.0830688476564	-870.6121826171877	-100.2698669433594	621.3604125976564	-986.989196777344	17.16363906860352	529.3563232421876	-872.797302246094	15.53631114959717	416.4303283691407	-858.9105224609377	49.22425079345705	448.7352294921876	-858.9478759765627	100.548080444336	432.868377685547	-883.985046386719	153.9610900878907	309.7182312011719	-868.4465332031252	158.4472045898438	347.5515747070313	-947.9829711914065	151.2630157470703	238.8440704345704	-920.5051879882815	285.6249084472657	410.0457458496095	-927.5969848632815	283.8395385742188	414.4496154785157	-874.8732910156252	275.9761352539063	364.6924438476563	-829.9705200195315	-4216.809570312501	853.0782470703127	-3944.738525390626	
